<?xml version="1.0"?>
<svg xmlns="http://www.w3.org/2000/svg" xmlns:xlink="http://www.w3.org/1999/xlink" version="1.1" id="Capa_1" x="0px" y="0px" viewBox="0 0 512 512" style="enable-background:new 0 0 512 512;" xml:space="preserve" width="512px" height="512px" class=""><g><g>
	<g>
		<path d="M256,0C114.841,0,0,114.841,0,256c0,58.435,20.204,115.585,56.892,160.924c3.557,4.396,10.007,5.076,14.401,1.518    c4.396-3.557,5.076-10.005,1.518-14.402C39.065,362.336,20.48,309.761,20.48,256C20.48,126.134,126.134,20.48,256,20.48    S491.52,126.134,491.52,256S385.866,491.52,256,491.52c-53.76,0-106.333-18.585-148.038-52.331    c-4.395-3.557-10.842-2.877-14.401,1.52c-3.557,4.396-2.877,10.843,1.52,14.402C140.418,491.796,197.566,512,256,512    c141.159,0,256-114.841,256-256S397.159,0,256,0z" data-original="#000000" class="active-path" data-old_color="#000000" fill="#FFFFFF"/>
	</g>
</g><g>
	<g>
		<path d="M400.4,136.025c-3.617-4.35-10.073-4.941-14.421-1.324c-4.349,3.615-4.941,10.073-1.324,14.421    c24.89,29.927,38.598,67.883,38.598,106.878c0,92.224-75.029,167.253-167.253,167.253S88.747,348.224,88.747,256    S163.776,88.747,256,88.747c32.054,0,63.193,9.09,90.053,26.288c4.762,3.049,11.096,1.662,14.146-3.103    c3.049-4.762,1.66-11.096-3.102-14.145C326.933,78.475,291.975,68.267,256,68.267C152.483,68.267,68.267,152.483,68.267,256    S152.483,443.733,256,443.733S443.733,359.517,443.733,256C443.733,212.23,428.343,169.622,400.4,136.025z" data-original="#000000" class="active-path" data-old_color="#000000" fill="#FFFFFF"/>
	</g>
</g><g>
	<g>
		<path d="M260.579,246.841c-25.174-12.587-48.953-24.476-48.953-45.455c0-21.107,23.002-30.72,44.373-30.72    s44.373,9.613,44.373,30.72c0,5.655,4.585,10.24,10.24,10.24s10.24-4.585,10.24-10.24c0-30.044-26.066-47.272-54.613-50.595    V133.12c0-5.655-4.585-10.24-10.24-10.24s-10.24,4.585-10.24,10.24v17.672c-28.548,3.323-54.613,20.551-54.613,50.595    c0,33.635,32.023,49.646,60.274,63.772c25.174,12.587,48.953,24.476,48.953,45.455c0,21.107-23.002,30.72-44.373,30.72    s-44.373-9.613-44.373-30.72c0-5.655-4.585-10.24-10.24-10.24s-10.24,4.585-10.24,10.24c0,30.044,26.066,47.272,54.613,50.594    v17.673c0,5.655,4.585,10.24,10.24,10.24s10.24-4.585,10.24-10.24v-17.673c28.548-3.323,54.613-20.551,54.613-50.594    C320.853,276.978,288.831,260.967,260.579,246.841z" data-original="#000000" class="active-path" data-old_color="#000000" fill="#FFFFFF"/>
	</g>
</g></g> </svg>
