<?xml version="1.0"?>
<svg xmlns="http://www.w3.org/2000/svg" id="Layer_5" enable-background="new 0 0 64 64" height="512px" viewBox="0 0 64 64" width="512px"><g><g><path d="m59.256 45.825-4.777-6.825h-6.959l-4.777 6.824c-1.14 1.63-1.743 3.542-1.743 5.531 0 5.318 4.327 9.645 9.645 9.645h.355.355c5.318 0 9.645-4.327 9.645-9.645 0-1.989-.603-3.901-1.744-5.53zm-5.256 2.175h-2v-.146c0-.471-.383-.854-.854-.854h-.292c-.471 0-.854.383-.854.854 0 .326.181.619.473.765l1.95.974c.973.487 1.577 1.466 1.577 2.553 0 1.274-.845 2.343-2 2.709v2.145h-2v-2.145c-1.155-.366-2-1.435-2-2.709v-1.146h2v1.146c0 .471.383.854.854.854h.292c.471 0 .854-.383.854-.854 0-.326-.181-.619-.473-.765l-1.95-.974c-.973-.487-1.577-1.466-1.577-2.553 0-1.274.845-2.343 2-2.709v-2.145h2v2.145c1.155.366 2 1.435 2 2.709z" data-original="#000000" class="active-path" data-old_color="#000000" fill="#005F6A"/><circle cx="27" cy="12" r="5" data-original="#000000" class="active-path" data-old_color="#000000" fill="#005F6A"/><path d="m33.597 9.681c.256.727.403 1.505.403 2.319 0 1.958-.81 3.728-2.11 5h10.857z" data-original="#000000" class="active-path" data-old_color="#000000" fill="#005F6A"/><path d="m19.97 7.466c1.988-1.59 4.484-2.466 7.03-2.466s5.042.876 7.03 2.466l11.917 9.534h3.202l-13.869-11.096c-2.342-1.873-5.282-2.904-8.28-2.904s-5.938 1.031-8.28 2.904l-13.869 11.096h3.202z" data-original="#000000" class="active-path" data-old_color="#000000" fill="#005F6A"/><path d="m45.829 29h1.171v-2h-4v3.271c.701-.775 1.704-1.271 2.829-1.271z" data-original="#000000" class="active-path" data-old_color="#000000" fill="#005F6A"/><path d="m49 24c0-.551-.449-1-1-1h-6c-.551 0-1 .449-1 1s.449 1 1 1h6c.551 0 1-.449 1-1z" data-original="#000000" class="active-path" data-old_color="#000000" fill="#005F6A"/><path d="m43.122 35.536c-.046-.046-.078-.1-.122-.148v6.583l2.7-3.856z" data-original="#000000" class="active-path" data-old_color="#000000" fill="#005F6A"/><path d="m50 30.631v2.369h-2v-2h-2.171c-1.009 0-1.829.82-1.829 1.829 0 .488.19.947.536 1.293l2.878 2.878h6.832l1.692-5.92c.041-.146.062-.297.062-.449 0-.899-.732-1.631-1.631-1.631h-2.737c-.9 0-1.632.732-1.632 1.631z" data-original="#000000" class="active-path" data-old_color="#000000" fill="#005F6A"/><path d="m12 21h30 6 3v-2h-48v2h3z" data-original="#000000" class="active-path" data-old_color="#000000" fill="#005F6A"/><path d="m11.254 17h10.856c-1.3-1.272-2.11-3.042-2.11-5 0-.814.147-1.593.404-2.32z" data-original="#000000" class="active-path" data-old_color="#000000" fill="#005F6A"/><path d="m13 24c0-.551-.449-1-1-1h-6c-.551 0-1 .449-1 1s.449 1 1 1h6c.551 0 1-.449 1-1z" data-original="#000000" class="active-path" data-old_color="#000000" fill="#005F6A"/><path d="m41.882 59h-38.882v2h41.127c-.834-.566-1.584-1.243-2.245-2z" data-original="#000000" class="active-path" data-old_color="#000000" fill="#005F6A"/><path d="m5 57h35.467c-.352-.633-.644-1.302-.875-2h-28.592v-2h28.13c-.077-.539-.13-1.085-.13-1.645 0-.119.01-.237.013-.355h-32.013v2h2v2h-4z" data-original="#000000" class="active-path" data-old_color="#000000" fill="#005F6A"/><path d="m36 45v-13c0-2.757-2.243-5-5-5h-13v13c0 2.757 2.243 5 5 5zm-13.707-12.293 1.414-1.414 3.293 3.293 3.293-3.293 1.414 1.414-3.293 3.293 3.293 3.293-1.414 1.414-3.293-3.293-3.293 3.293-1.414-1.414 3.293-3.293z" data-original="#000000" class="active-path" data-old_color="#000000" fill="#005F6A"/><path d="m7 27h4v22h-4z" data-original="#000000" class="active-path" data-old_color="#000000" fill="#005F6A"/></g></g> </svg>
