<?xml version="1.0"?>
<svg xmlns="http://www.w3.org/2000/svg" id="Layer_1" enable-background="new 0 0 512 512" height="512px" viewBox="0 0 512 512" width="512px"><g><path d="m496 39.997h-480c-8.84 0-16 7.16-16 16v312c0 8.84 7.16 16 16 16h176v33.696l-76.598 22.979c-8.464 2.539-13.267 11.459-10.728 19.923 2.538 8.463 11.453 13.267 19.923 10.728l77.751-23.325h101.651c7.956 0-5.717-3.41 83.402 23.325 8.496 2.549 17.394-2.297 19.923-10.728 2.539-8.464-2.264-17.384-10.728-19.923l-76.596-22.979v-33.696h176c8.84 0 16-7.16 16-16v-312c0-8.84-7.16-16-16-16zm-208 376h-64v-32h64zm192-64c-21.429 0-430.558 0-448 0v-280h448z" data-original="#000000" class="active-path" data-old_color="#000000" fill="#FFFFFF"/><circle cx="255.83" cy="279.997" r="24" data-original="#000000" class="active-path" data-old_color="#000000" fill="#FFFFFF"/><path d="m193.608 217.772c-6.249 6.248-6.249 16.379 0 22.627 6.248 6.248 16.379 6.249 22.627 0 21.886-21.885 57.309-21.887 79.196 0 3.124 3.124 7.219 4.686 11.313 4.686 14.126 0 21.422-17.206 11.313-27.314-34.39-34.39-90.056-34.393-124.449.001z" data-original="#000000" class="active-path" data-old_color="#000000" fill="#FFFFFF"/><path d="m170.98 195.144c46.897-46.896 122.804-46.901 169.706 0 6.247 6.248 16.379 6.249 22.627 0 6.249-6.248 6.249-16.379 0-22.627-59.263-59.264-155.695-59.265-214.96 0-6.249 6.249-6.249 16.379 0 22.627 6.249 6.249 16.379 6.249 22.627 0z" data-original="#000000" class="active-path" data-old_color="#000000" fill="#FFFFFF"/></g> </svg>
