<?xml version="1.0"?>
<svg xmlns="http://www.w3.org/2000/svg" xmlns:xlink="http://www.w3.org/1999/xlink" version="1.1" id="Capa_1" x="0px" y="0px" viewBox="0 0 512 512" style="enable-background:new 0 0 512 512;" xml:space="preserve" width="512px" height="512px" class=""><g><g>
	<g>
		<path d="M469.125,0H144.096c-4.233,0-7.665,3.432-7.665,7.665c0,4.233,3.432,7.665,7.665,7.665h325.029    c15.189,0,27.545,12.357,27.545,27.545v426.25c0,15.189-12.357,27.545-27.545,27.545H42.875    c-15.189,0-27.545-12.357-27.545-27.545V42.875c0-15.189,12.357-27.545,27.545-27.545h61.535c4.233,0,7.665-3.432,7.665-7.665    c0-4.233-3.432-7.665-7.665-7.665H42.875C19.234,0,0,19.234,0,42.875v426.25C0,492.766,19.234,512,42.875,512h426.25    C492.766,512,512,492.766,512,469.125V42.875C512,19.234,492.766,0,469.125,0z" data-original="#000000" class="active-path" data-old_color="#000000" fill="#5DB1B9"/>
	</g>
</g><g>
	<g>
		<path d="M255.657,118.241c-36.061,0-65.4,29.338-65.4,65.4s29.338,65.4,65.4,65.4c36.062,0,65.4-29.338,65.4-65.4    S291.719,118.241,255.657,118.241z M255.657,233.711c-27.609,0-50.07-22.462-50.07-50.07c0-27.608,22.461-50.07,50.07-50.07    c27.609,0,50.071,22.462,50.071,50.07S283.266,233.711,255.657,233.711z" data-original="#000000" class="active-path" data-old_color="#000000" fill="#5DB1B9"/>
	</g>
</g><g>
	<g>
		<path d="M311.474,263.561h-116.85c-42.253,0-76.629,34.376-76.629,76.629v37.231c0,8.491,6.908,15.399,15.399,15.399h65.377    c4.233,0,7.665-3.432,7.665-7.665c0-4.233-3.432-7.665-7.665-7.665l-11.234-0.012v-35.9c0-4.233-3.432-7.665-7.665-7.665    s-7.665,3.432-7.665,7.665v35.884l-38.883-0.041V340.19c0-33.801,27.499-61.3,61.3-61.3h116.851c33.8,0,61.299,27.499,61.299,61.3    l-0.069,37.3h-39.213v-35.912c0-4.233-3.432-7.665-7.665-7.665c-4.233,0-7.665,3.432-7.665,7.665v35.912H235.56    c-4.233,0-7.665,3.432-7.665,7.665c0,4.233,3.432,7.665,7.665,7.665h137.144c8.491,0,15.399-6.908,15.399-15.399V340.19    C388.103,297.936,353.727,263.561,311.474,263.561z" data-original="#000000" class="active-path" data-old_color="#000000" fill="#5DB1B9"/>
	</g>
</g></g> </svg>
